<svg width="35" height="35" viewBox="0 0 35 35" fill="none" xmlns="http://www.w3.org/2000/svg">
<g filter="url(#filter0_d_34_52148)">
<path d="M25.7 23.0584C29.0605 18.6792 28.2337 12.3977 23.8545 9.03721C19.4752 5.67673 13.1937 6.50354 9.83327 10.8828C6.47279 15.262 7.2996 21.5435 11.6788 24.904C16.0581 28.2644 22.3395 27.4376 25.7 23.0584ZM15.5938 19.7528C15.5662 19.5425 15.6263 19.3491 15.742 19.1984C15.8576 19.0477 16.0288 18.9396 16.2392 18.9119L18.6508 18.5944L14.5334 15.4349C14.2081 15.1853 14.1454 14.7085 14.395 14.3833C14.6446 14.058 15.1213 13.9952 15.4466 14.2448L19.564 17.4044L19.2465 14.9928C19.193 14.5862 19.4852 14.2054 19.8918 14.1518C20.2985 14.0983 20.6793 14.3905 20.7328 14.7972L21.2865 19.0035C21.34 19.4101 21.0478 19.7909 20.6411 19.8444L16.4348 20.3981C16.0282 20.4516 15.6474 20.1594 15.5938 19.7528Z" fill="#FF6A39"/>
</g>
<defs>
<filter id="filter0_d_34_52148" x="-3.05884" y="0.145142" width="41.6509" height="41.6509" filterUnits="userSpaceOnUse" color-interpolation-filters="sRGB">
<feFlood flood-opacity="0" result="BackgroundImageFix"/>
<feColorMatrix in="SourceAlpha" type="matrix" values="0 0 0 0 0 0 0 0 0 0 0 0 0 0 0 0 0 0 127 0" result="hardAlpha"/>
<feOffset dy="4"/>
<feGaussianBlur stdDeviation="2"/>
<feComposite in2="hardAlpha" operator="out"/>
<feColorMatrix type="matrix" values="0 0 0 0 1 0 0 0 0 0.415686 0 0 0 0 0.223529 0 0 0 0.2 0"/>
<feBlend mode="normal" in2="BackgroundImageFix" result="effect1_dropShadow_34_52148"/>
<feBlend mode="normal" in="SourceGraphic" in2="effect1_dropShadow_34_52148" result="shape"/>
</filter>
</defs>
</svg>
